<?xml version="1.0" encoding="UTF-8" standalone="no"?>
<svg
   version="1.1"
   width="512"
   height="512"
   id="svg63"
   sodipodi:docname="564b91ec-f8ed-4395-a44f-5338d58fe87a.svg"
   xmlns:inkscape="http://www.inkscape.org/namespaces/inkscape"
   xmlns:sodipodi="http://sodipodi.sourceforge.net/DTD/sodipodi-0.dtd"
   xmlns="http://www.w3.org/2000/svg"
   xmlns:svg="http://www.w3.org/2000/svg">
  <defs
     id="defs63" />
  <sodipodi:namedview
     id="namedview63"
     pagecolor="#ffffff"
     bordercolor="#000000"
     borderopacity="0.25"
     inkscape:showpageshadow="2"
     inkscape:pageopacity="0.0"
     inkscape:pagecheckerboard="0"
     inkscape:deskcolor="#d1d1d1" />
  <path
     d="M0 0 C168.96 0 337.92 0 512 0 C512 168.96 512 337.92 512 512 C343.04 512 174.08 512 0 512 C0 343.04 0 174.08 0 0 Z "
     fill="#225687"
     transform="translate(0,0)"
     id="path1" />
  <path
     d="M0 0 C0.33 0 0.66 0 1 0 C1 80.52 1 161.04 1 244 C-78.86 244 -158.72 244 -241 244 C-241 243.67 -241 243.34 -241 243 C-240.25129639 242.93006836 -239.50259277 242.86013672 -238.73120117 242.78808594 C-223.61551772 241.34816633 -208.71888245 239.81665748 -194 236 C-192.62497314 235.64446045 -192.62497314 235.64446045 -191.22216797 235.28173828 C-156.61072159 226.13963347 -123.78263559 210.75057659 -96 188 C-95.16082031 187.31309082 -95.16082031 187.31309082 -94.3046875 186.61230469 C-87.91415496 181.3573096 -81.71140486 175.99857047 -76 170 C-71 165 -71 165 -68.97265625 163.04296875 C-63.48417757 157.68583828 -58.61527336 152.12214039 -54 146 C-53.52546387 145.37480469 -53.05092773 144.74960937 -52.56201172 144.10546875 C-20.43945959 101.55585807 -3.63892498 52.90493986 0 0 Z "
     fill="#FDFEFE"
     transform="translate(511,268)"
     id="path2" />
  <path
     d="M0 0 C79.86 0 159.72 0 242 0 C242 79.2 242 158.4 242 240 C241.67 240 241.34 240 241 240 C240.93006836 239.31711914 240.86013672 238.63423828 240.78808594 237.93066406 C234.68430007 179.34609556 213.83044009 128.47825303 175 84 C174.55978516 83.4951709 174.11957031 82.9903418 173.66601562 82.47021484 C168.44139598 76.51344559 163.0821697 71.06669321 157 66 C156.09121094 65.20335938 155.18242187 64.40671875 154.24609375 63.5859375 C126.99665557 39.78806565 95.12387361 22.25374875 60.51025391 11.76367188 C58.40869105 11.12433239 56.31805316 10.44922777 54.23046875 9.765625 C36.80153995 4.28615525 18.13481694 2.5246085 0 1 C0 0.67 0 0.34 0 0 Z "
     fill="#FDFEFE"
     transform="translate(270,0)"
     id="path3" />
  <path
     d="M0 0 C0.33 0 0.66 0 1 0 C1.09796875 1.3096875 1.1959375 2.619375 1.296875 3.96875 C6.01448394 63.2357742 28.0003245 115.26053778 67 160 C67.43876465 160.50337891 67.8775293 161.00675781 68.32958984 161.52539062 C72.94233284 166.78429673 77.61177034 171.78585104 82.9765625 176.28125 C84.37925872 177.47272942 85.74750423 178.70550961 87.0859375 179.96875 C129.24335021 219.68016948 187.16856094 239.31800527 244 243 C244 243.33 244 243.66 244 244 C163.48 244 82.96 244 0 244 C0 163.48 0 82.96 0 0 Z "
     fill="#FDFEFE"
     transform="translate(0,268)"
     id="path4" />
  <path
     d="M0 0 C77.88 0 155.76 0 236 0 C236 0.33 236 0.66 236 1 C235.44465576 1.05945801 234.88931152 1.11891602 234.31713867 1.18017578 C177.33428325 7.47745684 127.02404777 29.2129357 84 67 C82.51306641 68.30130859 82.51306641 68.30130859 80.99609375 69.62890625 C76.26025375 73.84928067 71.7941107 78.11304242 67.71875 82.9765625 C66.52727058 84.37925872 65.29449039 85.74750423 64.03125 87.0859375 C25.95681764 127.50553417 7.44823625 181.9135372 1 236 C0.67 236 0.34 236 0 236 C0 158.12 0 80.24 0 0 Z "
     fill="#FDFEFE"
     transform="translate(0,0)"
     id="path5" />
  <path
     d="M0 0 C71.74733208 0 71.74733208 0 89.296875 17.16796875 C100.53742344 28.94455491 104.4048032 43.36646334 104.3125 59.3125 C104.30686035 60.32997314 104.3012207 61.34744629 104.29541016 62.39575195 C104.01770096 79.56835402 98.26150079 92.89041161 86 105 C85.44699219 105.57492187 84.89398438 106.14984375 84.32421875 106.7421875 C63.4256202 126.75920745 23.08174265 120 0 120 C0 80.4 0 40.8 0 0 Z "
     fill="#F9FCFC"
     transform="translate(38,196)"
     id="path6" />
  <path
     d="M0 0 C39.25806452 0 39.25806452 0 51.359375 9.9375 C60.29098057 19.07057035 62.46629487 29.16590679 62.5625 41.5 C62.35914086 56.6435582 59.058061 66.941939 48.1875 77.8125 C33.52905554 87.87221679 17.78948219 85 0 85 C0 56.95 0 28.9 0 0 Z "
     fill="#235687"
     transform="translate(59,213)"
     id="path7" />
  <path
     d="M0 0 C8.10901388 6.17295174 11.63314099 15.90823355 13.2578125 25.71875 C13.3678962 27.23688104 13.4320772 28.75919051 13.4453125 30.28125 C13.45949219 31.02503906 13.47367187 31.76882813 13.48828125 32.53515625 C13.225696 35.02304025 12.5775087 36.60260557 11.2578125 38.71875 C8.73037162 39.98247044 6.99400942 39.83897795 4.16552734 39.83227539 C2.57410416 39.83216209 2.57410416 39.83216209 0.95053101 39.83204651 C-0.77295059 39.82430458 -0.77295059 39.82430458 -2.53125 39.81640625 C-3.70481049 39.8149913 -4.87837097 39.81357635 -6.0874939 39.81211853 C-9.84741735 39.80650689 -13.60728195 39.79395238 -17.3671875 39.78125 C-19.91145748 39.7762365 -22.45572838 39.77167333 -25 39.76757812 C-31.24741603 39.75653368 -37.49479756 39.73978418 -43.7421875 39.71875 C-43.30965397 41.79121213 -42.86447807 43.8610381 -42.4140625 45.9296875 C-42.1675293 47.08259277 -41.92099609 48.23549805 -41.66699219 49.42333984 C-39.96890181 55.47424373 -36.9434468 59.22002026 -31.8046875 62.71875 C-24.76287499 65.07121391 -16.20471235 65.09340026 -9.34765625 62.37109375 C-7.32910405 61.29707163 -5.32169465 60.20174396 -3.328125 59.08203125 C0.19697229 57.22363404 2.37514654 56.70925685 6.2578125 57.71875 C8.76598613 59.73952744 10.80208444 61.83077336 12.2578125 64.71875 C12.07132737 67.22434505 11.54915266 68.3809643 9.91015625 70.28125 C-0.10876606 78.67979991 -12.56971177 82.81645631 -25.7421875 81.71875 C-35.88840961 80.62420892 -46.29791022 76.53577193 -53.21875 68.8046875 C-61.96386213 56.83061089 -64.74498848 42.82575364 -63.3125 28.2265625 C-61.36775723 16.26506246 -55.96169121 6.38060683 -46.11328125 -0.77734375 C-31.32752349 -10.15546029 -14.60969962 -9.34288001 0 0 Z "
     fill="#F8FBFC"
     transform="translate(297.7421875,235.28125)"
     id="path8" />
  <path
     d="M0 0 C9.10853946 8.86962695 11.32569524 19.7568396 11.7109375 31.98828125 C11.29317314 34.95739224 10.45634702 36.16427975 8.3828125 38.3203125 C5.97200012 38.80133057 5.97200012 38.80133057 3.08520508 38.77441406 C1.46386406 38.77396088 1.46386406 38.77396088 -0.19023132 38.77349854 C-1.93878166 38.74253082 -1.93878166 38.74253082 -3.72265625 38.7109375 C-4.91699783 38.70527771 -6.11133942 38.69961792 -7.34187317 38.69378662 C-11.16321597 38.67136425 -14.98362725 38.62115445 -18.8046875 38.5703125 C-21.3925646 38.5502552 -23.98045637 38.5320031 -26.56835938 38.515625 C-32.91828754 38.47148013 -39.26767098 38.40450878 -45.6171875 38.3203125 C-45.00629615 40.7443354 -44.38664169 43.16553013 -43.76171875 45.5859375 C-43.59031372 46.26994629 -43.41890869 46.95395508 -43.24230957 47.65869141 C-41.4869065 54.40238191 -39.61047628 57.36816764 -33.7421875 61.1953125 C-26.7198583 63.71967921 -18.10441279 63.70476903 -11.22265625 60.97265625 C-9.20410405 59.89863413 -7.19669465 58.80330646 -5.203125 57.68359375 C-1.67802771 55.82519654 0.50014654 55.31081935 4.3828125 56.3203125 C6.89098613 58.34108994 8.92708444 60.43233586 10.3828125 63.3203125 C10.19632737 65.82590755 9.67415266 66.9825268 8.03515625 68.8828125 C-1.15887434 76.58988143 -11.6010185 80.13112839 -23.6796875 80.6953125 C-37.19350297 79.40828246 -47.99529534 75.47727885 -56.859375 64.890625 C-65.3607286 52.45975685 -66.90343138 35.75456534 -64.21875 21.15332031 C-61.34842252 10.48342988 -54.96159417 2.05631441 -45.6171875 -3.6796875 C-30.81534585 -11.54552186 -13.32076678 -10.52457084 0 0 Z "
     fill="#F8FBFC"
     transform="translate(215.6171875,236.6796875)"
     id="path9" />
  <path
     d="M0 0 C5.9935717 4.93526621 9.0016737 11.3630405 10.25 18.9375 C10.33500091 21.05307463 10.36776843 23.17105277 10.36352539 25.28833008 C10.36341209 27.17972466 10.36341209 27.17972466 10.36329651 29.10932922 C10.35819069 30.47523031 10.3529747 31.84113098 10.34765625 33.20703125 C10.3457897 34.61236012 10.34436692 36.01768965 10.34336853 37.42301941 C10.339562 41.11044125 10.32974774 44.7978233 10.31866455 48.48522949 C10.30841025 52.25251731 10.30386232 56.0198116 10.29882812 59.78710938 C10.2881237 67.170591 10.2710698 74.55403991 10.25 81.9375 C8.64726736 81.9696713 7.04434826 81.99264464 5.44140625 82.01171875 C4.10251343 82.03238403 4.10251343 82.03238403 2.73657227 82.0534668 C-0.55045267 81.90016912 -2.3445048 81.18780196 -4.75 78.9375 C-5.37109375 76.32421875 -5.37109375 76.32421875 -5.75 73.9375 C-6.42804688 74.33582031 -7.10609375 74.73414063 -7.8046875 75.14453125 C-18.61012414 81.29554851 -28.9336297 85.16403763 -41.48828125 82.31640625 C-48.96031334 79.7652572 -53.56193765 75.1233584 -57.1875 68.1875 C-58.55674164 60.27632606 -58.99429294 52.90330746 -54.46484375 45.96484375 C-46.33188835 36.34980081 -32.89185874 32.48371526 -20.75 30.9375 C-18.62588004 30.87289781 -16.49997095 30.85138921 -14.375 30.875 C-12.78558594 30.88853516 -12.78558594 30.88853516 -11.1640625 30.90234375 C-10.36742187 30.91394531 -9.57078125 30.92554688 -8.75 30.9375 C-8.83772455 29.04083474 -8.94591301 27.14511007 -9.0625 25.25 C-9.12050781 24.19425781 -9.17851562 23.13851563 -9.23828125 22.05078125 C-9.79777047 18.64686595 -10.71278343 16.7005657 -12.75 13.9375 C-17.91222637 10.49601576 -23.75125271 11.0893799 -29.75 11.9375 C-33.11695152 13.49836423 -36.00558378 15.26448627 -39.03125 17.40625 C-42.24572569 19.21670182 -44.11452934 19.38942315 -47.75 18.9375 C-51.83047746 15.78440378 -53.48124612 12.89717428 -54.75 7.9375 C-39.23690138 -5.06502469 -18.21075986 -12.69960885 0 0 Z "
     fill="#F7FBFB"
     transform="translate(466.75,234.0625)"
     id="path10" />
  <path
     d="M0 0 C6.70665306 4.80721636 10.72480859 11.35470735 12.3125 19.4375 C13.2988838 26.68359249 13.4583839 33.78651462 13.4453125 41.09375 C13.44626923 42.27723022 13.44722595 43.46071045 13.44821167 44.68005371 C13.44888877 47.16430719 13.44706746 49.64856248 13.44287109 52.1328125 C13.43747789 55.95316466 13.4428515 59.77340128 13.44921875 63.59375 C13.44855863 66.01041693 13.44727885 68.42708378 13.4453125 70.84375 C13.44733673 71.99153931 13.44936096 73.13932861 13.45144653 74.32189941 C13.44671829 75.89989319 13.44671829 75.89989319 13.44189453 77.50976562 C13.44109894 78.43970337 13.44030334 79.36964111 13.43948364 80.32775879 C13.3125 82.4375 13.3125 82.4375 12.3125 83.4375 C10.89679877 83.52401611 9.476905 83.54454904 8.05859375 83.53515625 C7.20458984 83.53193359 6.35058594 83.52871094 5.47070312 83.52539062 C4.57287109 83.51701172 3.67503906 83.50863281 2.75 83.5 C1.84830078 83.49548828 0.94660156 83.49097656 0.01757812 83.48632812 C-2.21751314 83.47450225 -4.45247437 83.4580222 -6.6875 83.4375 C-6.69336624 82.68661102 -6.69923248 81.93572205 -6.70527649 81.16207886 C-6.76328508 74.07055419 -6.83540819 66.97934436 -6.92321491 59.88813591 C-6.96785957 56.24282943 -7.00712825 52.59763319 -7.03393555 48.95214844 C-7.06002811 45.43115763 -7.10047142 41.91059237 -7.15068626 38.38986588 C-7.17538358 36.39923999 -7.18538447 34.40844925 -7.19514465 32.41769409 C-7.21493881 31.19688141 -7.23473297 29.97606873 -7.25512695 28.71826172 C-7.27178154 27.11275955 -7.27178154 27.11275955 -7.28877258 25.474823 C-7.89211478 20.87883828 -9.357388 17.48688485 -13.01953125 14.59765625 C-17.86177908 12.49202286 -22.52512305 12.62508132 -27.6875 13.4375 C-32.24165283 15.42046668 -36.17327097 17.92327097 -39.6875 21.4375 C-40.01982684 24.14784638 -40.01982684 24.14784638 -40.00634766 27.35595703 C-40.02621735 28.59709259 -40.04608704 29.83822815 -40.06655884 31.11697388 C-40.07843611 32.47641827 -40.09009892 33.83586455 -40.1015625 35.1953125 C-40.12026729 36.58252118 -40.13984019 37.9697184 -40.1602478 39.35690308 C-40.21164812 43.00975804 -40.25123125 46.66264994 -40.28839111 50.31567383 C-40.32838148 54.04257397 -40.37949639 57.76931949 -40.4296875 61.49609375 C-40.5265403 68.80979798 -40.60988682 76.12356165 -40.6875 83.4375 C-46.9575 83.4375 -53.2275 83.4375 -59.6875 83.4375 C-59.6875 55.0575 -59.6875 26.6775 -59.6875 -2.5625 C-54.7375 -2.5625 -49.7875 -2.5625 -44.6875 -2.5625 C-42.6875 -0.5625 -42.6875 -0.5625 -42.5625 2.5625 C-42.60375 3.51125 -42.645 4.46 -42.6875 5.4375 C-41.99785156 4.96699219 -41.30820312 4.49648437 -40.59765625 4.01171875 C-27.75976501 -4.49404458 -14.0964837 -8.52400438 0 0 Z "
     fill="#F8FBFC"
     transform="translate(383.6875,232.5625)"
     id="path11" />
  <path
     d="M0 0 C1.04974607 11.23061669 1.04974607 11.23061669 -1.2421875 15.09375 C-6.475237 19.82037536 -13.33207282 22.09192888 -20.3125 22.3125 C-25.42885974 21.87891019 -25.42885974 21.87891019 -28 20 C-30.67798037 15.98302944 -30.92219356 12.71897243 -30 8 C-22.31093095 -1.06915837 -10.95078729 -0.3895537 0 0 Z "
     fill="#235688"
     transform="translate(458,280)"
     id="path12" />
  <path
     d="M0 0 C4.51332147 4.53676729 5.05071614 7.35501298 6 14 C-6.54 14 -19.08 14 -32 14 C-30.85227456 7.11364738 -29.07116933 3.24719707 -23.4375 -0.875 C-15.94786163 -4.33175617 -7.08872104 -4.30883044 0 0 Z "
     fill="#245687"
     transform="translate(203,247)"
     id="path13" />
  <path
     d="M0 0 C4.09032478 2.41158732 5.69552241 5.07667915 7.5 9.4375 C7.5 11.4175 7.5 13.3975 7.5 15.4375 C-4.71 15.4375 -16.92 15.4375 -29.5 15.4375 C-28.3530161 8.5555966 -26.60041524 4.6958626 -21 0.5625 C-14.58615693 -3.13503267 -6.71935626 -2.88330586 0 0 Z "
     fill="#255685"
     transform="translate(284.5,245.5625)"
     id="path14" />
  <path
     d="M0 0 C0.33 0 0.66 0 1 0 C2.19905813 6.73047506 2.25848924 13.44241084 2.38671875 20.265625 C2.41224319 21.53597595 2.43776764 22.8063269 2.46406555 24.11517334 C2.5159264 26.79128755 2.56572965 29.46735612 2.61254883 32.14355469 C2.67322486 35.57246541 2.74744896 39.00094151 2.82492352 42.42950821 C2.89628582 45.70804642 2.95307122 48.98683846 3.01171875 52.265625 C3.04077805 53.49686096 3.06983734 54.72809692 3.09977722 55.99664307 C3.12519341 57.70421783 3.12519341 57.70421783 3.15112305 59.44628906 C3.17031296 60.44887756 3.18950287 61.45146606 3.20927429 62.48443604 C3 65 3 65 1 68 C-2.2578125 68.29296875 -2.2578125 68.29296875 -6.125 68.1875 C-8.04699219 68.14689453 -8.04699219 68.14689453 -10.0078125 68.10546875 C-10.99523437 68.07066406 -11.98265625 68.03585937 -13 68 C-13 67.34 -13 66.68 -13 66 C-8.71 66.33 -4.42 66.66 0 67 C-0.03552979 65.00590088 -0.07105957 63.01180176 -0.10766602 60.95727539 C-0.22360916 54.38352282 -0.33489268 47.80970444 -0.4429636 41.23581791 C-0.50868668 37.24838695 -0.57630563 33.2610066 -0.64819336 29.27368164 C-0.71744398 25.42881571 -0.7817982 21.58389669 -0.84269524 17.73888969 C-0.86685154 16.26878295 -0.8928002 14.79870457 -0.92053413 13.32866096 C-0.95894963 11.27652554 -0.99110609 9.22438351 -1.02172852 7.17211914 C-1.04171402 6.00185684 -1.06169952 4.83159454 -1.08229065 3.62586975 C-1 1 -1 1 0 0 Z "
     fill="#4B6E90"
     transform="translate(477,249)"
     id="path15" />
  <path
     d="M0 0 C5.875 0.875 5.875 0.875 7 2 C7.33 1.34 7.66 0.68 8 0 C8.99 0.33 9.98 0.66 11 1 C10.01 2.32 9.02 3.64 8 5 C8.66 5.33 9.32 5.66 10 6 C11.25 8.25 11.25 8.25 12 11 C11.125 13.8125 11.125 13.8125 10 16 C9.34 16 8.68 16 8 16 C8 16.66 8 17.32 8 18 C6.35 18 4.7 18 3 18 C3.804375 17.2575 4.60875 16.515 5.4375 15.75 C7.93998504 13.26858156 7.93998504 13.26858156 9.125 11.0625 C8.91145549 7.53901564 6.40005855 5.36690857 4 3 C1.83779383 1.1873495 1.83779383 1.1873495 0 0 Z "
     fill="#305981"
     transform="translate(300,291)"
     id="path16" />
  <path
     d="M0 0 C4.86263484 0.59300425 8.69348993 1.7200829 13 4 C13.6875 6.0625 13.6875 6.0625 14 8 C14.8971875 8.433125 14.8971875 8.433125 15.8125 8.875 C18.97458416 10.50121471 20.18513714 13.01843959 22 16 C21.67 16.66 21.34 17.32 21 18 C20.45472656 17.34773438 19.90945312 16.69546875 19.34765625 16.0234375 C14.37235996 10.25719668 9.53579483 5.88472945 3 2 C2.01 1.34 1.02 0.68 0 0 Z "
     fill="#385C84"
     transform="translate(110,201)"
     id="path17" />
  <path
     d="M0 0 C0.33 0 0.66 0 1 0 C1.08777806 4.16653186 1.14065272 8.33282276 1.1875 12.5 C1.21263672 13.67304688 1.23777344 14.84609375 1.26367188 16.0546875 C1.32044106 22.79129773 0.88473358 27.88224479 -2 34 C-3.15403475 30.02547392 -2.72223204 26.66186409 -2.125 22.625 C-1.08927073 15.09115748 -0.45088763 7.59389696 0 0 Z "
     fill="#D2E4F0"
     transform="translate(511,268)"
     id="path18" />
  <path
     d="M0 0 C0.33 0 0.66 0 1 0 C1.14304107 5.76577247 1.28544033 11.5315603 1.42724609 17.29736328 C1.47557234 19.25863066 1.52407366 21.21989372 1.57275391 23.18115234 C1.64271383 26.0009654 1.7120432 28.82079337 1.78125 31.640625 C1.80312378 32.51680481 1.82499756 33.39298462 1.84753418 34.29571533 C1.86755493 35.11626404 1.88757568 35.93681274 1.90820312 36.78222656 C1.92596802 37.50170471 1.94373291 38.22118286 1.96203613 38.96246338 C1.99952797 40.97466612 2 42.98744801 2 45 C1.34 45 0.68 45 0 45 C0 30.15 0 15.3 0 0 Z "
     fill="#2C527A"
     transform="translate(397,271)"
     id="path19" />
  <path
     d="M0 0 C2.97 0 5.94 0 9 0 C10.0735426 11.48520179 10.0735426 11.48520179 7.44140625 15.19921875 C5.69054267 16.65416173 3.98570231 17.8906408 2 19 C1.67 17.68 1.34 16.36 1 15 C2.32 14.67 3.64 14.34 5 14 C5 13.34 5 12.68 5 12 C5.66 12 6.32 12 7 12 C6.979375 10.741875 6.95875 9.48375 6.9375 8.1875 C6.89113917 5.35948913 7.08307039 3.75078884 8 1 C5.36 1 2.72 1 0 1 C0 0.67 0 0.34 0 0 Z "
     fill="#2F577F"
     transform="translate(449,280)"
     id="path20" />
  <path
     d="M0 0 C0.5534764 2.07553648 1 3.84365964 1 6 C12.22 6.33 23.44 6.66 35 7 C35 7.33 35 7.66 35 8 C22.79 8 10.58 8 -2 8 C-1 2 -1 2 0 0 Z "
     fill="#345677"
     transform="translate(173,253)"
     id="path21" />
  <path
     d="M0 0 C0.66 0.33 1.32 0.66 2 1 C1.67 1.99 1.34 2.98 1 4 C2.65 5.65 4.3 7.3 6 9 C4.625 10.5 4.625 10.5 3 12 C2.34 12 1.68 12 1 12 C0.34 9.69 -0.32 7.38 -1 5 C-5.95 4.67 -10.9 4.34 -16 4 C-16 3.67 -16 3.34 -16 3 C-15.09636719 2.95101562 -14.19273437 2.90203125 -13.26171875 2.8515625 C-12.08222656 2.77679688 -10.90273438 2.70203125 -9.6875 2.625 C-7.92986328 2.52058594 -7.92986328 2.52058594 -6.13671875 2.4140625 C-2.84300113 2.21386253 -2.84300113 2.21386253 0 0 Z "
     fill="#496D91"
     transform="translate(340,226)"
     id="path22" />
  <path
     d="M0 0 C0 0.99 0 1.98 0 3 C-0.33 3.33 -0.66 3.66 -1 4 C-1.50031206 7.41571853 -1.50031206 7.41571853 -1 11 C2.95657283 14.95657283 8.69160943 14.70108092 14 15 C10.28428072 17.47714618 7.3028023 17.42593397 3 17 C-0.4203866 15.82986774 -0.91540482 15.12689277 -3 12 C-3.30078125 9.84375 -3.30078125 9.84375 -3.3125 7.5 C-3.32925781 6.7265625 -3.34601563 5.953125 -3.36328125 5.15625 C-2.92078843 2.52984103 -2.02185443 1.66442897 0 0 Z "
     fill="#406185"
     transform="translate(431,285)"
     id="path23" />
  <path
     d="M0 0 C-3.2443646 2.91790883 -5.31856006 3.36193787 -9.640625 3.29296875 C-11.24550781 3.2784668 -11.24550781 3.2784668 -12.8828125 3.26367188 C-13.99398438 3.23853516 -15.10515625 3.21339844 -16.25 3.1875 C-17.93996094 3.16719727 -17.93996094 3.16719727 -19.6640625 3.14648438 C-22.44319264 3.11115645 -25.22135363 3.0618252 -28 3 C-28 2.67 -28 2.34 -28 2 C-24.83402429 1.65988375 -21.6671312 1.32916813 -18.5 1 C-17.613125 0.90460938 -16.72625 0.80921875 -15.8125 0.7109375 C-10.50765526 0.16485054 -5.33262848 -0.0996753 0 0 Z "
     fill="#D5E5F1"
     transform="translate(298,509)"
     id="path24" />
  <path
     d="M0 0 C0.33 0 0.66 0 1 0 C1.33947025 3.49943267 1.67044773 6.99962052 2 10.5 C2.09539062 11.48226563 2.19078125 12.46453125 2.2890625 13.4765625 C2.80588848 19.01398367 3.10592737 24.43881298 3 30 C2.67 30 2.34 30 2 30 C-0.66641331 24.01631659 -0.22314726 18.03477075 -0.125 11.625 C-0.11597656 10.50738281 -0.10695312 9.38976562 -0.09765625 8.23828125 C-0.07418346 5.49196538 -0.04134728 2.74609528 0 0 Z "
     fill="#CBDFED"
     transform="translate(0,268)"
     id="path25" />
  <path
     d="M0 0 C4.86896303 0.59619955 9.32790951 1.56976822 14 3 C14 3.66 14 4.32 14 5 C16.31 5.33 18.62 5.66 21 6 C21 6.66 21 7.32 21 8 C13.51747162 6.62820313 6.94395046 4.07836721 0 1 C0 0.67 0 0.34 0 0 Z "
     fill="#3D6387"
     transform="translate(153,490)"
     id="path26" />
  <path
     d="M0 0 C0 0.99 0 1.98 0 3 C-0.78375 3.268125 -1.5675 3.53625 -2.375 3.8125 C-5.28114923 4.84814432 -5.28114923 4.84814432 -7 8 C-9.62697064 8.22137393 -12.00893964 8.28162025 -14.625 8.1875 C-15.33140625 8.17396484 -16.0378125 8.16042969 -16.765625 8.14648438 C-18.51074128 8.1111104 -20.25546608 8.05730221 -22 8 C-22 7.67 -22 7.34 -22 7 C-20.37191406 6.61908203 -20.37191406 6.61908203 -18.7109375 6.23046875 C-17.26553276 5.88319618 -15.82022535 5.53551836 -14.375 5.1875 C-13.66214844 5.02185547 -12.94929688 4.85621094 -12.21484375 4.68554688 C-7.80283625 3.61290285 -4.00941682 2.20707645 0 0 Z "
     fill="#3A6186"
     transform="translate(302,309)"
     id="path27" />
  <path
     d="M0 0 C0.33 0.66 0.66 1.32 1 2 C-6.49192101 12.81251603 -6.49192101 12.81251603 -12 16 C-12.99 15.67 -13.98 15.34 -15 15 C-14.33613281 14.41992188 -13.67226563 13.83984375 -12.98828125 13.2421875 C-8.26794615 9.06624141 -3.84575655 4.99948351 0 0 Z "
     fill="#D6E7EF"
     transform="translate(444,429)"
     id="path28" />
  <path
     d="M0 0 C0.66 0.33 1.32 0.66 2 1 C1.49396008 3.16874252 1.00016187 4.99967627 0 7 C0.99 7.33 1.98 7.66 3 8 C4.1875 11.5625 4.1875 11.5625 5 15 C4.34 15 3.68 15 3 15 C1.5625 13.1015625 1.5625 13.1015625 0 10.625 C-1.57112484 8.15047838 -2.92383041 6.07616959 -5 4 C-3.35 3.34 -1.7 2.68 0 2 C0 1.34 0 0.68 0 0 Z "
     fill="#2A5887"
     transform="translate(219,232)"
     id="path29" />
  <path
     d="M0 0 C0.79921875 0.00902344 1.5984375 0.01804688 2.421875 0.02734375 C3.02515625 0.03894531 3.6284375 0.05054688 4.25 0.0625 C4.25 0.3925 4.25 0.7225 4.25 1.0625 C-5.75 3.0625 -5.75 3.0625 -8.515625 3.50390625 C-9.25296875 3.68824219 -9.9903125 3.87257812 -10.75 4.0625 C-11.44937532 5.37897119 -12.11729133 6.71272151 -12.75 8.0625 C-14.875 8.8125 -14.875 8.8125 -16.75 9.0625 C-14.6753854 5.02246103 -12.83961139 3.05743238 -8.75 1.0625 C-5.76697793 0.14320389 -3.11417853 -0.04579674 0 0 Z "
     fill="#33587E"
     transform="translate(190.75,243.9375)"
     id="path30" />
  <path
     d="M0 0 C0 0.66 0 1.32 0 2 C-3.58045212 4.74778884 -6.4923533 6.46968862 -11 7 C-11 7.66 -11 8.32 -11 9 C-11.66 9 -12.32 9 -13 9 C-11.60724746 5.6227555 -10.17726069 4.12929695 -7.0625 2.25 C-6.37285156 1.82203125 -5.68320312 1.3940625 -4.97265625 0.953125 C-3 0 -3 0 0 0 Z "
     fill="#395F88"
     transform="translate(271,244)"
     id="path31" />
  <path
     d="M0 0 C0.66 0 1.32 0 2 0 C2.33 1.65 2.66 3.3 3 5 C5.31 5 7.62 5 10 5 C10 5.66 10 6.32 10 7 C10.99 7.33 11.98 7.66 13 8 C8.1001072 7.49311454 3.55643866 7.0003877 -1 5 C-1.33 4.01 -1.66 3.02 -2 2 C-1.34 1.34 -0.68 0.68 0 0 Z "
     fill="#376189"
     transform="translate(189,498)"
     id="path32" />
  <path
     d="M0 0 C1.65 0 3.3 0 5 0 C4 3 4 3 1.56640625 4.421875 C0.57511719 4.86015625 -0.41617187 5.2984375 -1.4375 5.75 C-2.42621094 6.19859375 -3.41492188 6.6471875 -4.43359375 7.109375 C-5.28050781 7.40328125 -6.12742187 7.6971875 -7 8 C-7.66 7.67 -8.32 7.34 -9 7 C-8.67 6.34 -8.34 5.68 -8 5 C-7.030625 4.87625 -6.06125 4.7525 -5.0625 4.625 C-1.88417172 4.3508355 -1.88417172 4.3508355 -0.625 1.9375 C-0.41875 1.298125 -0.2125 0.65875 0 0 Z "
     fill="#3A6089"
     transform="translate(292,292)"
     id="path33" />
  <path
     d="M0 0 C0.66 0 1.32 0 2 0 C2 0.66 2 1.32 2 2 C2.66 2 3.32 2 4 2 C5.86783046 7.48675196 6.2358396 12.22192976 6 18 C4.43074066 15.06528123 3.36715669 12.192957 2.4375 9 C2.18871094 8.154375 1.93992188 7.30875 1.68359375 6.4375 C1.08390789 4.29919157 0.52446849 2.15781322 0 0 Z "
     fill="#3D6287"
     transform="translate(136,226)"
     id="path34" />
  <path
     d="M0 0 C0.66 0.66 1.32 1.32 2 2 C1.50886719 2.82757813 1.01773437 3.65515625 0.51171875 4.5078125 C-1.19360386 8.44723993 -1.34615733 11.67668309 -1.1875 15.875 C-1.16719727 16.90753906 -1.16719727 16.90753906 -1.14648438 17.9609375 C-1.1114837 19.64097001 -1.05768954 21.3205935 -1 23 C-1.66 23 -2.32 23 -3 23 C-3.08172936 20.4784979 -3.14083373 17.95970083 -3.1875 15.4375 C-3.21263672 14.73302734 -3.23777344 14.02855469 -3.26367188 13.30273438 C-3.33532304 8.11996685 -2.32172598 4.63735818 0 0 Z "
     fill="#466B8E"
     transform="translate(411,279)"
     id="path35" />
  <path
     d="M0 0 C0.66 0.33 1.32 0.66 2 1 C-1.34704884 5.23303235 -4.59973766 8.84329006 -9 12 C-9.99 11.67 -10.98 11.34 -12 11 C-11.30132812 10.37351562 -10.60265625 9.74703125 -9.8828125 9.1015625 C-8.97273438 8.28429687 -8.06265625 7.46703125 -7.125 6.625 C-5.76761719 5.40683594 -5.76761719 5.40683594 -4.3828125 4.1640625 C-2.89103817 2.80923795 -1.42494565 1.42494565 0 0 Z "
     fill="#3A6185"
     transform="translate(88,62)"
     id="path36" />
  <path
     d="M0 0 C1.94113934 0.92994117 3.8777951 1.8692453 5.8125 2.8125 C6.89144531 3.33457031 7.97039062 3.85664062 9.08203125 4.39453125 C11.56579702 5.76110117 13.1799378 6.87340101 15 9 C10.87248551 8.39301257 7.6678852 6.96189209 4 5 C4 4.34 4 3.68 4 3 C2.68 2.67 1.36 2.34 0 2 C0 1.34 0 0.68 0 0 Z "
     fill="#3A5F85"
     transform="translate(376,30)"
     id="path37" />
  <path
     d="M0 0 C0.99 0.33 1.98 0.66 3 1 C0.03 5.95 0.03 5.95 -3 11 C-4 7 -4 7 -3.22265625 5.078125 C-1.61132812 2.5390625 -1.61132812 2.5390625 0 0 Z "
     fill="#365D85"
     transform="translate(477,380)"
     id="path38" />
  <path
     d="M0 0 C0.53367187 0.20496094 1.06734375 0.40992188 1.6171875 0.62109375 C7.41395572 2.717157 12.85732066 3.62810501 19 4 C19 4.33 19 4.66 19 5 C13.555 5.495 13.555 5.495 8 6 C8 5.34 8 4.68 8 4 C6.02 4 4.04 4 2 4 C1.34 2.68 0.68 1.36 0 0 Z "
     fill="#31567F"
     transform="translate(419,313)"
     id="path39" />
  <path
     d="M0 0 C-1.15173355 2.46800047 -2.04783565 4.04783565 -4 6 C-7.125 6.125 -7.125 6.125 -10 6 C-7.35570758 3.077361 -4.105808 0 0 0 Z "
     fill="#305880"
     transform="translate(122,304)"
     id="path40" />
  <path
     d="M0 0 C2.40575607 2.18517099 3.79535581 4.25919671 5.1875 7.1875 C5.53167969 7.90292969 5.87585938 8.61835938 6.23046875 9.35546875 C6.48441406 9.89816406 6.73835938 10.44085938 7 11 C6.34 11 5.68 11 5 11 C5 10.34 5 9.68 5 9 C2.525 8.01 2.525 8.01 0 7 C0 4.69 0 2.38 0 0 Z "
     fill="#375E85"
     transform="translate(474,123)"
     id="path41" />
  <path
     d="M0 0 C0.33 0.66 0.66 1.32 1 2 C0.14453125 3.91015625 0.14453125 3.91015625 -1.1875 6.0625 C-1.82751953 7.13177734 -1.82751953 7.13177734 -2.48046875 8.22265625 C-4.25241746 10.29524408 -5.34385824 10.63030147 -8 11 C-5.50127818 7.1626772 -2.9156164 3.54039134 0 0 Z "
     fill="#3E6589"
     transform="translate(62,88)"
     id="path42" />
  <path
     d="M0 0 C0.33 0.66 0.66 1.32 1 2 C-2.32307692 6.8 -2.32307692 6.8 -5.75 7.8125 C-6.4925 7.874375 -7.235 7.93625 -8 8 C-5.58443874 4.80800833 -3.31996462 2.25283313 0 0 Z "
     fill="#325B82"
     transform="translate(98,54)"
     id="path43" />
  <path
     d="M0 0 C0.99 0.33 1.98 0.66 3 1 C0.03 3.97 -2.94 6.94 -6 10 C-6.33 9.01 -6.66 8.02 -7 7 C-5.47005208 5.76302083 -3.94010417 4.52604167 -2.41015625 3.2890625 C-0.86733563 2.0333609 -0.86733563 2.0333609 0 0 Z "
     fill="#2E557C"
     transform="translate(433,437)"
     id="path44" />
  <path
     d="M0 0 C0.66 0 1.32 0 2 0 C3.32 3.63 4.64 7.26 6 11 C5.01 11.495 5.01 11.495 4 12 C2.18757677 7.9811485 0.66498383 4.38889325 0 0 Z "
     fill="#3C6084"
     transform="translate(489,153)"
     id="path45" />
  <path
     d="M0 0 C0.33 0 0.66 0 1 0 C1.99 3.96 2.98 7.92 4 12 C3.01 11.67 2.02 11.34 1 11 C0.234375 9.00390625 0.234375 9.00390625 -0.25 6.5625 C-0.42015625 5.75941406 -0.5903125 4.95632813 -0.765625 4.12890625 C-1 2 -1 2 0 0 Z "
     fill="#3E6289"
     transform="translate(151,282)"
     id="path46" />
  <path
     d="M0 0 C0.99 0.33 1.98 0.66 3 1 C0.36 2.98 -2.28 4.96 -5 7 C-5.33 5.35 -5.66 3.7 -6 2 C-5.67 2.66 -5.34 3.32 -5 4 C-3.01508358 3.73323796 -3.01508358 3.73323796 -1 3 C-0.67 2.01 -0.34 1.02 0 0 Z "
     fill="#345F87"
     transform="translate(413,455)"
     id="path47" />
  <path
     d="M0 0 C-0.61875 0.28875 -1.2375 0.5775 -1.875 0.875 C-4.13325765 1.93720042 -4.13325765 1.93720042 -6 4 C-8.625 3.625 -8.625 3.625 -11 3 C-4.33333333 -1.44444444 -4.33333333 -1.44444444 0 0 Z "
     fill="#395F84"
     transform="translate(171,16)"
     id="path48" />
  <path
     d="M0 0 C4.43458973 1.3937282 6.87378374 3.60582235 10 7 C9.67 7.66 9.34 8.32 9 9 C7.49704815 7.69088122 5.99770689 6.37761608 4.5 5.0625 C3.6646875 4.33160156 2.829375 3.60070312 1.96875 2.84765625 C1.3190625 2.23792969 0.669375 1.62820313 0 1 C0 0.67 0 0.34 0 0 Z "
     fill="#395E83"
     transform="translate(76,438)"
     id="path49" />
  <path
     d="M0 0 C0.33 0.66 0.66 1.32 1 2 C-0.98 4.64 -2.96 7.28 -5 10 C-5.66 9.34 -6.32 8.68 -7 8 C-4.69 5.36 -2.38 2.72 0 0 Z "
     fill="#DFEEF5"
     transform="translate(444,429)"
     id="path50" />
  <path
     d="M0 0 C5 7.5 5 7.5 5 10 C1.125 8.125 1.125 8.125 0 7 C-0.04092937 4.66702567 -0.04241723 2.33294775 0 0 Z "
     fill="#DEEEF5"
     transform="translate(171,284)"
     id="path51" />
  <path
     d="M0 0 C0.33 0 0.66 0 1 0 C1.39012425 1.76756294 1.7616098 3.53924783 2.125 5.3125 C2.33382812 6.29863281 2.54265625 7.28476562 2.7578125 8.30078125 C3 11 3 11 1 14 C1 13.01 1 12.02 1 11 C0.34 11 -0.32 11 -1 11 C-0.67 7.37 -0.34 3.74 0 0 Z "
     fill="#2E5782"
     transform="translate(227,262)"
     id="path52" />
  <path
     d="M0 0 C0.33 0 0.66 0 1 0 C1.125 2.875 1.125 2.875 1 6 C0.34 6.66 -0.32 7.32 -1 8 C-1.99 7.67 -2.98 7.34 -4 7 C-2.68 4.69 -1.36 2.38 0 0 Z "
     fill="#385E85"
     transform="translate(35,126)"
     id="path53" />
  <path
     d="M0 0 C3.63094642 2.64960955 5.89851796 5.01824456 8 9 C5.37812506 7.95125002 4.20628639 7.35068687 2.75 4.875 C2.5025 4.25625 2.255 3.6375 2 3 C1.34 3 0.68 3 0 3 C0 2.01 0 1.02 0 0 Z "
     fill="#375C81"
     transform="translate(450,90)"
     id="path54" />
  <path
     d="M0 0 C2 3 4 6 6 9 C4.35 8.67 2.7 8.34 1 8 C0.67 5.36 0.34 2.72 0 0 Z "
     fill="#3F6284"
     transform="translate(410,302)"
     id="path55" />
  <path
     d="M0 0 C0.33 1.32 0.66 2.64 1 4 C-1.35953094 6.35953094 -2.77895617 6.49141413 -6 7 C-4.02 4.69 -2.04 2.38 0 0 Z "
     fill="#4A6C91"
     transform="translate(129,295)"
     id="path56" />
  <path
     d="M0 0 C-1.6875 1.5625 -1.6875 1.5625 -4 3 C-6.75 2.6875 -6.75 2.6875 -9 2 C-4.13793103 -1.24137931 -4.13793103 -1.24137931 0 0 Z "
     fill="#40648A"
     transform="translate(443,282)"
     id="path57" />
  <path
     d="M0 0 C1.32 0 2.64 0 4 0 C5.09658936 3.28976808 4.79953138 4.71303767 4 8 C2.22293791 5.33440687 1.12451727 2.9719385 0 0 Z "
     fill="#2D5880"
     transform="translate(472,240)"
     id="path58" />
  <path
     d="M0 0 C4.10801767 1.18676066 5.89448334 1.89448334 9 5 C4.545 4.01 4.545 4.01 0 3 C0 2.01 0 1.02 0 0 Z "
     fill="#2D567D"
     transform="translate(367,26)"
     id="path59" />
  <path
     d="M0 0 C0.99 0.33 1.98 0.66 3 1 C4.1875 4.5625 4.1875 4.5625 5 8 C4.34 8 3.68 8 3 8 C1.02 4.535 1.02 4.535 -1 1 C-0.67 0.67 -0.34 0.34 0 0 Z "
     fill="#3B5F89"
     transform="translate(219,239)"
     id="path60" />
  <path
     d="M0 0 C4.875 4.75 4.875 4.75 6 7 C5.01 7.33 4.02 7.66 3 8 C3 7.01 3 6.02 3 5 C2.34 5 1.68 5 1 5 C0.67 3.35 0.34 1.7 0 0 Z "
     fill="#375E87"
     transform="translate(109,223)"
     id="path61" />
  <path
     d="M0 0 C1.98 1.65 3.96 3.3 6 5 C5.01 5.33 4.02 5.66 3 6 C2.01 5.34 1.02 4.68 0 4 C0 2.68 0 1.36 0 0 Z "
     fill="#2F567E"
     transform="translate(441,80)"
     id="path62" />
  <path
     d="M0 0 C1.32 0.33 2.64 0.66 4 1 C3.67 1.99 3.34 2.98 3 4 C0.9375 4.6875 0.9375 4.6875 -1 5 C-1.33 4.01 -1.66 3.02 -2 2 C-1.34 2 -0.68 2 0 2 C0 1.34 0 0.68 0 0 Z "
     fill="#325E87"
     transform="translate(350,18)"
     id="path63" />
</svg>
